<svg width="72" height="72" viewBox="0 0 72 72" fill="none" xmlns="http://www.w3.org/2000/svg">
<path d="M29.7164 55.4836H33.3164L48.96 35.8472H45.36L29.7164 55.4836Z" fill="#2D56FC"/>
<path d="M44.4 47.5418C42.1745 47.5418 40.3636 49.3527 40.3636 51.5781C40.3636 53.8036 42.1745 55.6145 44.4 55.6145C46.6255 55.6145 48.4364 53.8036 48.4364 51.5781C48.4364 49.3527 46.6255 47.5418 44.4 47.5418ZM44.4 52.7563C43.7673 52.7563 43.2436 52.2327 43.2436 51.5781C43.2436 50.9236 43.7455 50.4 44.4 50.4C45.0327 50.4 45.5564 50.9236 45.5564 51.5781C45.5564 52.2327 45.0327 52.7563 44.4 52.7563Z" fill="#2D56FC"/>
<path d="M34.2763 43.7891C36.5018 43.7891 38.3127 41.9782 38.3127 39.7528C38.3127 37.5273 36.5018 35.7164 34.2763 35.7164C32.0508 35.7164 30.2399 37.5273 30.2399 39.7528C30.2399 41.9782 32.0508 43.7891 34.2763 43.7891ZM34.2763 38.5746C34.909 38.5746 35.4327 39.0982 35.4327 39.7528C35.4327 40.3855 34.909 40.9309 34.2763 40.9309C33.6436 40.9309 33.1199 40.4073 33.1199 39.7528C33.1418 39.0982 33.6436 38.5746 34.2763 38.5746Z" fill="#2D56FC"/>
<path d="M36 0C16.1236 0 0 15.9927 0 35.7382C0 55.4618 16.1236 72 36 72C55.8764 72 72 55.4618 72 35.7382C72 15.9927 55.8764 0 36 0ZM38.3127 61.8545C26.64 61.8545 19.3745 53.1491 19.3745 43.7673C19.3745 35.3018 24.7855 27.6873 35.52 26.9455V32.0727C38.8582 28.5164 42.5891 25.5709 47.3018 22.5818C42.5891 19.5709 38.8582 16.6473 35.52 13.0909V18.4145C23.8691 18.3709 13.5273 25.2655 10.4509 37.0036C10.4509 36.7418 10.4291 36.48 10.4291 36.2182C10.4291 21.9491 21.7527 10.3636 35.9564 10.3636C50.16 10.3636 61.5273 21.9491 61.5273 36.2182C61.5273 49.6145 52.08 61.8545 38.3127 61.8545Z" fill="#2D56FC"/>
</svg>
