<svg width="182" height="36" viewBox="0 0 182 36" fill="none" xmlns="http://www.w3.org/2000/svg">
    <path d="M8.97656 18C8.97656 12.625 12.6954 8.18748 18.0813 8.18748C22.1849 8.18748 25.6473 10.375 26.4808 13.6875H35.8421C35.3933 6.125 28.2761 0 18.2737 0C7.88652 0 0 7.4375 0 18C0 28.625 7.88652 36 18.2737 36C28.4044 36 35.5856 29.9375 35.8421 21.625H26.4808C25.7755 25.4375 22.5055 27.75 18.0813 27.75C13.2083 27.8125 8.97656 23.5625 8.97656 18ZM69.504 19.75C63.8616 21.0625 59.8866 25.75 58.9888 33.3125C58.0911 25.75 54.1156 21.0625 48.4732 19.75C47.5116 13.8125 52.8335 8.625 58.9888 8.625C65.1442 8.625 70.4661 13.8125 69.504 19.75ZM77.4549 18C77.4549 8.06252 69.1835 0 58.9888 0C48.7937 0 40.5227 8.06252 40.5227 18C40.5227 27.9375 48.7937 36 58.9888 36C69.1835 36 77.4549 27.9375 77.4549 18ZM92.1379 9.37498H106.436V1.375H82.3277V34.625H92.1379V9.37498ZM135.418 18C135.418 23.25 131.378 27.125 126.505 27.125C121.76 27.125 117.593 23.25 117.593 18C117.593 12.75 121.696 8.87498 126.505 8.87498C131.378 8.87498 135.418 12.75 135.418 18ZM134.776 34.625H144.587V1.375H134.776V4.99998C132.276 1.9375 128.942 0.687499 125.287 0.687499C116.054 0.687499 108.68 7.625 108.68 18C108.68 28.375 116.054 35.3125 125.287 35.3125C128.942 35.3125 132.276 34.0625 134.776 31V34.625ZM180.942 10.4375C180.942 4.87502 176.133 0.437499 166.323 0.437499C155.935 0.437499 150.55 6.125 150.55 13.125H160.103C160.103 9.49999 162.155 7.56251 166.194 7.56251C169.977 7.56251 171.58 8.87498 171.58 11C171.58 13.0625 170.362 14.5 167.477 14.5H162.091V20.5H167.349C170.683 20.5 172.093 21.9375 172.093 24.1875C172.093 26.375 170.619 28.375 166.387 28.375C161.77 28.375 159.654 26.0625 159.654 22.3125H150.037C150.037 30.875 156.192 35.5 166.258 35.5C176.197 35.5 181.711 31.4375 181.711 25C181.711 21.625 179.916 19.1875 176.389 17.75C179.467 16.25 180.942 13.4375 180.942 10.4375Z"
          fill="#000078"/>
</svg>
